<svg xmlns="http://www.w3.org/2000/svg" xmlns:xlink="http://www.w3.org/1999/xlink" width="1360" height="1520"><g transform="translate(0 0)"><path d="M0 0h1360v1520H0z" fill="#fcd1a5"/><path d="M140.53 231.74c0-6.35 5.15-11.5 11.5-11.5h157c6.35 0 11.5 5.15 11.5 11.5v77c0 6.35-5.15 11.5-11.5 11.5h-157c-6.35 0-11.5-5.15-11.5-11.5z" stroke="#3d4752" stroke-width="4" fill="#f2f2f2"/><use xlink:href="#a" transform="matrix(1,0,0,1,160.53024609688046,220.23650133369256) translate(44.4677734375 44.140625)"/><use xlink:href="#b" transform="matrix(1,0,0,1,160.53024609688046,220.23650133369256) translate(25.429687499999993 71.376953125)"/><path d="M320.53 270.24H430.4c.08 0 .13-.06.13-.12 0-.07.05-.12.12-.12h109.88" stroke="#3d4752" stroke-width="4" fill="none"/><path d="M540.53 270l-14.27 4.64v-9.28z" fill="#3d4752"/><path d="M540.6 267.92l-.07 2.08v1.4l.04.7-16.3 5.3v-14.8zm-12.34 3.96l5.8-1.88-5.8-1.88z" fill="#3d4752"/><path fill="#fcd1a5" d="M365.54 242.88h130v54.47h-130z"/><use xlink:href="#c" transform="matrix(1,0,0,1,365.53512890938043,242.88192254184628) translate(0 21.376953125000004)"/><use xlink:href="#d" transform="matrix(1,0,0,1,365.53512890938043,242.88192254184628) translate(49.990234375000014 21.376953125000004)"/><use xlink:href="#e" transform="matrix(1,0,0,1,365.53512890938043,242.88192254184628) translate(0 48.61328125000001)"/><use xlink:href="#f" transform="matrix(1,0,0,1,365.53512890938043,242.88192254184628) translate(31.171875000000004 48.61328125000001)"/><path d="M720.53 270c0 49.7-40.3 90-90 90s-90-40.3-90-90 40.3-90 90-90 90 40.3 90 90z" stroke="#3d4752" stroke-width="4" fill="#f2f2f2"/><use xlink:href="#g" transform="matrix(1,0,0,1,560.5302460968804,180) translate(55.732421875 70.5224609375)"/><use xlink:href="#h" transform="matrix(1,0,0,1,560.5302460968804,180) translate(43.232421875 97.7587890625)"/><use xlink:href="#i" transform="matrix(1,0,0,1,560.5302460968804,180) translate(29.999999999999993 124.9951171875)"/><path d="M630.53 180v-27c0-12.7 10.3-23 23-23h227" stroke="#3d4752" stroke-width="4" fill="none"/><path d="M632.53 180.06l-2-.06h-1.4l-.6.04V180h4zM880.53 130l-14.27 4.64v-9.28z" fill="#3d4752"/><path d="M880.53 127.9v4.2l-16.27 5.3v-14.8zm-12.27 3.98l5.8-1.88-5.8-1.88z" fill="#3d4752"/><path fill="#fcd1a5" d="M665.53 116.38h170v27.24h-170z"/><use xlink:href="#j" transform="matrix(1,0,0,1,665.5253632843804,116.3818359375) translate(0 21.376953125000004)"/><use xlink:href="#f" transform="matrix(1,0,0,1,665.5253632843804,116.3818359375) translate(102.62695312500001 21.376953125000004)"/><path d="M880.53 91.5c0-6.35 5.15-11.5 11.5-11.5h177c6.35 0 11.5 5.15 11.5 11.5v77c0 6.35-5.15 11.5-11.5 11.5h-177c-6.35 0-11.5-5.15-11.5-11.5z" fill="#f2f2f2"/><path d="M880.53 80h200m0 100h-200" stroke="#3d4752" stroke-width="4" fill="#f2f2f2"/><use xlink:href="#k" transform="matrix(1,0,0,1,900.5302460968804,80) translate(31.284179687499993 44.140625)"/><use xlink:href="#l" transform="matrix(1,0,0,1,900.5302460968804,80) translate(34.00390624999999 71.376953125)"/><path d="M720.53 270h79.88c.08 0 .13.05.13.12 0 .06.05.12.12.12h79.88" stroke="#3d4752" stroke-width="4" fill="none"/><path d="M720.53 272h-.06l.06-2v-1.4l-.04-.6h.03zM880.53 270.24l-14.27 4.63v-9.27z" fill="#3d4752"/><path d="M880.53 268.13v4.2l-16.27 5.3v-14.78zm-12.27 4l5.8-1.9-5.8-1.88z" fill="#3d4752"/><path fill="#fcd1a5" d="M759.67 242.88h81.72v54.47h-81.73z"/><use xlink:href="#m" transform="matrix(1,0,0,1,759.6708710968804,242.88192254184628) translate(0 21.376953125000004)"/><use xlink:href="#n" transform="matrix(1,0,0,1,759.6708710968804,242.88192254184628) translate(0 48.61328125000001)"/><use xlink:href="#f" transform="matrix(1,0,0,1,759.6708710968804,242.88192254184628) translate(5.195312500000001 48.61328125000001)"/><path d="M880.53 231.74c0-6.35 5.15-11.5 11.5-11.5h177c6.35 0 11.5 5.15 11.5 11.5v77c0 6.35-5.15 11.5-11.5 11.5h-177c-6.35 0-11.5-5.15-11.5-11.5z" fill="#f2f2f2"/><path d="M880.53 220.24h200m0 100h-200" stroke="#3d4752" stroke-width="4" fill="#f2f2f2"/><use xlink:href="#m" transform="matrix(1,0,0,1,900.5302460968804,220.23650133369256) translate(39.14062499999999 44.140625)"/><use xlink:href="#l" transform="matrix(1,0,0,1,900.5302460968804,220.23650133369256) translate(34.00390624999999 71.376953125)"/><path d="M141 751.74c0-6.35 5.15-11.5 11.5-11.5h157c6.35 0 11.5 5.15 11.5 11.5v77c0 6.35-5.15 11.5-11.5 11.5h-157c-6.35 0-11.5-5.15-11.5-11.5z" stroke="#3d4752" stroke-width="4" fill="#f2f2f2"/><use xlink:href="#o" transform="matrix(1,0,0,1,161,740.2365013336926) translate(21.284179687499993 57.7587890625)"/><path d="M231 740.24V553c0-12.7 10.3-23 23-23h286.53" stroke="#3d4752" stroke-width="4" fill="none"/><path d="M540.53 530l-14.27 4.64v-9.28z" fill="#3d4752"/><path d="M540.6 527.92l-.07 2.08v1.4l.04.7-16.3 5.3v-14.8zm-12.34 3.96l5.8-1.88-5.8-1.88z" fill="#3d4752"/><path fill="#fcd1a5" d="M363 502.76h111.3v54.47H363z"/><use xlink:href="#p" transform="matrix(1,0,0,1,362.99790172913816,502.763671875) translate(0 21.376953125000004)"/><use xlink:href="#q" transform="matrix(1,0,0,1,362.99790172913816,502.763671875) translate(20.781250000000004 21.376953125000004)"/><use xlink:href="#r" transform="matrix(1,0,0,1,362.99790172913816,502.763671875) translate(0 48.61328125000001)"/><path d="M720.53 530c0 49.7-40.3 90-90 90s-90-40.3-90-90 40.3-90 90-90 90 40.3 90 90z" stroke="#3d4752" stroke-width="4" fill="#f2f2f2"/><use xlink:href="#s" transform="matrix(1,0,0,1,560.5302460968804,440) translate(55.732421875 56.904296875)"/><use xlink:href="#t" transform="matrix(1,0,0,1,560.5302460968804,440) translate(36.88476562499999 84.140625)"/><use xlink:href="#u" transform="matrix(1,0,0,1,560.5302460968804,440) translate(29.584960937499993 111.376953125)"/><use xlink:href="#v" transform="matrix(1,0,0,1,560.5302460968804,440) translate(45.4833984375 138.61328125)"/><path d="M322 761.32h222.17" stroke="#3d4752" stroke-width="4" fill="none"/><path d="M322 763.32h-1v-4h1zM544.17 761.32l-14.27 4.64v-9.27z" fill="#3d4752"/><path d="M545.77 759.74l-.3.8-.87 2.74-16.7 5.43v-14.77zm-13.87 3.46l5.8-1.88-5.8-1.88z" fill="#3d4752"/><path fill="#fcd1a5" d="M375.1 734.08h115.98v54.47h-116z"/><use xlink:href="#w" transform="matrix(1,0,0,1,375.09070473499753,734.0841841195227) translate(0 21.376953125000004)"/><use xlink:href="#x" transform="matrix(1,0,0,1,375.09070473499753,734.0841841195227) translate(0 48.61328125000001)"/><use xlink:href="#y" transform="matrix(1,0,0,1,375.09070473499753,734.0841841195227) translate(10.390625000000002 48.61328125000001)"/><path d="M720.53 790c0 49.7-40.3 90-90 90s-90-40.3-90-90 40.3-90 90-90 90 40.3 90 90z" stroke="#3d4752" stroke-width="4" fill="#f2f2f2"/><use xlink:href="#z" transform="matrix(1,0,0,1,560.5302460968804,700) translate(55.732421875 84.140625)"/><use xlink:href="#A" transform="matrix(1,0,0,1,560.5302460968804,700) translate(21.098632812499993 111.376953125)"/><path d="M231 840.24V1027c0 12.7 10.3 23 23 23h286.53" stroke="#3d4752" stroke-width="4" fill="none"/><path d="M540.53 1050l-14.27 4.64v-9.28z" fill="#3d4752"/><path d="M540.6 1047.92l-.07 2.08v1.4l.04.7-16.3 5.3v-14.8zm-12.34 3.96l5.8-1.88-5.8-1.88z" fill="#3d4752"/><path d="M720.53 1050c0 49.7-40.3 90-90 90s-90-40.3-90-90 40.3-90 90-90 90 40.3 90 90z" stroke="#3d4752" stroke-width="4" fill="#f2f2f2"/><use xlink:href="#B" transform="matrix(1,0,0,1,560.5302460968804,960) translate(55.732421875 84.140625)"/><use xlink:href="#C" transform="matrix(1,0,0,1,560.5302460968804,960) translate(31.806640624999993 111.376953125)"/><path d="M141 790.24h-20.5c-11.32 0-20.5 9.17-20.5 20.5V1287c0 12.7 10.3 23 23 23h417.53" stroke="#3d4752" stroke-width="4" fill="none"/><path d="M540.53 1310l-14.27 4.64v-9.28z" fill="#3d4752"/><path d="M540.6 1307.92l-.07 2.08v1.4l.04.7-16.3 5.3v-14.8zm-12.34 3.96l5.8-1.88-5.8-1.88z" fill="#3d4752"/><path d="M720.53 1310c0 49.7-40.3 90-90 90s-90-40.3-90-90 40.3-90 90-90 90 40.3 90 90z" stroke="#3d4752" stroke-width="4" fill="#f2f2f2"/><use xlink:href="#D" transform="matrix(1,0,0,1,560.5302460968804,1220) translate(55.732421875 70.5224609375)"/><use xlink:href="#E" transform="matrix(1,0,0,1,560.5302460968804,1220) translate(28.461914062499993 97.7587890625)"/><use xlink:href="#F" transform="matrix(1,0,0,1,560.5302460968804,1220) translate(41.6845703125 124.9951171875)"/><path d="M720.53 1310h297.14c12.7 0 23-10.3 23-23V321.24" stroke="#3d4752" stroke-width="4" fill="none"/><path d="M720.53 1312h-.06l.06-2v-1.4l-.04-.6h.03zM1045.3 335.5h-9.27l4.64-14.26z" fill="#3d4752"/><path d="M1048.05 337.5h-14.77l5.6-17.26h3.56zm-9.27-4h3.77l-1.88-5.8z" fill="#3d4752"/><path d="M630.53 960v-20c0-11.05 8.95-20 20-20h307c12.7 0 23-10.3 23-23V320.24" stroke="#3d4752" stroke-width="4" fill="none"/><path d="M632.53 960.06l-2-.06h-1.4l-.6.04V960h4zM985.17 334.5h-9.28l4.63-14.26z" fill="#3d4752"/><path d="M987.92 336.5h-14.78l5.3-16.26h4.2zm-9.27-4h3.76l-1.87-5.8z" fill="#3d4752"/><path d="M720.53 790h177c12.7 0 23-10.3 23-23V321.24" stroke="#3d4752" stroke-width="4" fill="none"/><path d="M720.53 792h-.06l.06-2v-1.4l-.04-.6h.03zM925.17 335.5h-9.28l4.63-14.26z" fill="#3d4752"/><path d="M927.92 337.5h-14.78l5.6-17.26h3.57zm-9.27-4h3.76l-1.87-5.8z" fill="#3d4752"/><path d="M630.53 1400v20c0 11.05 8.95 20 20 20H1167c12.7 0 23-10.3 23-23v-56.76" stroke="#3d4752" stroke-width="4" fill="none"/><path d="M630.53 1400h-2v-.06zm2 0h-2 1.4l.6-.04zM1194.64 1374.5h-9.28l4.64-14.26z" fill="#3d4752"/><path d="M1197.4 1376.5h-14.8l5.3-16.26h4.2zm-9.28-4h3.76l-1.88-5.8z" fill="#3d4752"/><path d="M1100 1271.74c0-6.35 5.15-11.5 11.5-11.5h157c6.35 0 11.5 5.15 11.5 11.5v77c0 6.35-5.15 11.5-11.5 11.5h-157c-6.35 0-11.5-5.15-11.5-11.5z" stroke="#3d4752" stroke-width="4" fill="#f2f2f2"/><g><use xlink:href="#G" transform="matrix(1,0,0,1,1120,1260.2365013336926) translate(40.6787109375 44.140625)"/><use xlink:href="#H" transform="matrix(1,0,0,1,1120,1260.2365013336926) translate(44.8583984375 71.376953125)"/></g><path d="M1100 1011.74c0-6.35 5.15-11.5 11.5-11.5h157c6.35 0 11.5 5.15 11.5 11.5v77c0 6.35-5.15 11.5-11.5 11.5h-157c-6.35 0-11.5-5.15-11.5-11.5z" stroke="#3d4752" stroke-width="4" fill="#f2f2f2"/><g><use xlink:href="#I" transform="matrix(1,0,0,1,1120,1000.2365013336926) translate(43.916015625 44.140625)"/><use xlink:href="#J" transform="matrix(1,0,0,1,1120,1000.2365013336926) translate(43.0615234375 71.376953125)"/></g><path d="M1100 1050.24h-54.33m0 0c0-2.76-2.24-5-5-5s-5 2.24-5 5h-125.3c-.05 0-.1-.06-.1-.12 0-.07-.06-.12-.12-.12H720.53" stroke="#3d4752" stroke-width="4" fill="none"/><path d="M734.8 1054.64l-14.27-4.64 14.27-4.64z" fill="#3d4752"/><path d="M736.8 1057.4l-16.33-5.32.06-2.08v-1.4l-.04-.7 16.3-5.3zm-9.8-7.4l5.8 1.88v-3.76z" fill="#3d4752"/><path d="M544.8 820.58H322" stroke="#3d4752" stroke-width="4" fill="none"/><path d="M545.92 820.74l.72 1.84h-1.83v-4h.4zM336.27 825.2L322 820.6l14.27-4.64z" fill="#3d4752"/><path d="M338.27 827.97l-17.27-5.6v-3.57l17.27-5.6zm-9.8-7.4l5.8 1.9v-3.77z" fill="#3d4752"/><path fill="#fcd1a5" d="M393.87 793.34h79.07v54.47h-79.07z"/><g><use xlink:href="#K" transform="matrix(1,0,0,1,393.86846132741096,793.3419615323351) translate(0 21.376953125000004)"/><use xlink:href="#L" transform="matrix(1,0,0,1,393.86846132741096,793.3419615323351) translate(5.195312500000001 21.376953125000004)"/><use xlink:href="#M" transform="matrix(1,0,0,1,393.86846132741096,793.3419615323351) translate(0 48.61328125000001)"/></g><defs><path fill="#3d4752" d="M1268-424c0 285-235 424-537 424H184v-1462c456 17 1047-96 1047 370 0 167-86 294-225 316v10c175 38 262 140 262 342zm-355-627c0-133-104-157-256-157H494v325h180c151-2 239-31 239-168zM696-256c158 0 250-52 250-199 0-121-87-182-260-182H494v381h202" id="N"/><path fill="#3d4752" d="M618-1141c286 0 465 117 465 396V0H870l-59-152h-8C704-33 632 18 432 20 216 22 86-113 86-334c0-119 44-202 124-262 109-82 356-99 570-100 11-142-39-219-174-219-89 0-194 27-315 81l-101-206c129-67 271-101 428-101zm-71 938c137 0 235-88 233-223v-92c-190 3-382 4-381 186 0 86 49 129 148 129" id="O"/><path fill="#3d4752" d="M795-1139c261-1 398 148 397 410V0H887v-653c-1-148-42-242-180-242-202 0-242 139-242 369V0H160v-1118h233l41 143h17c62-102 185-163 344-164" id="P"/><path fill="#3d4752" d="M453-608l133-170 313-340h344L799-633 1270 0H918L596-453 465-348V0H160v-1556h305v694l-16 254h4" id="Q"/><g id="a"><use transform="matrix(0.009765625000000002,0,0,0.009765625000000002,0,0)" xlink:href="#N"/><use transform="matrix(0.009765625000000002,0,0,0.009765625000000002,13.437500000000002,0)" xlink:href="#O"/><use transform="matrix(0.009765625000000002,0,0,0.009765625000000002,25.517578125000004,0)" xlink:href="#P"/><use transform="matrix(0.009765625000000002,0,0,0.009765625000000002,38.66210937500001,0)" xlink:href="#Q"/></g><path fill="#3d4752" d="M1384-895c-176 0-222 133-223 334V0H856v-653c-1-144-37-242-168-242-78 0-135 29-170 86s-53 152-53 283V0H160v-1118h233l41 143h17c56-98 174-164 325-164 167 0 281 55 340 164h27c55-99 179-165 330-164 265 2 385 133 385 410V0h-306v-653c-1-144-37-242-168-242" id="R"/><path fill="#3d4752" d="M549-1139c43 0 163 15 194 21h390v155l-175 45c32 50 48 106 48 168 2 289-261 415-574 373-89 78-53 146 121 146h190c229-1 375 93 377 311 0 131-55 232-164 304S691 492 487 492c-156 0-275-28-357-82S6 280 6 182C6 26 113-51 254-84c-55-22-119-89-117-162 3-107 68-140 144-190C169-483 89-600 90-756c1-259 185-383 459-383zM467 14c-100-2-199 51-197 144 3 184 368 146 487 90 62-30 93-71 93-123 0-42-19-70-55-87-64-30-222-23-328-24zm82-569c118 0 165-80 166-197 0-135-55-202-166-202-112 0-168 67-168 202 0 117 52 197 168 197" id="S"/><path fill="#3d4752" d="M836-686c0-141-77-236-213-236-140 0-206 98-215 236h428zm223 627C946-4 838 19 666 20 308 22 92-191 92-551c0-356 187-588 529-588 314 0 504 195 501 508v148H401c5 169 104 277 279 276 158-2 261-33 379-88v236" id="T"/><path fill="#3d4752" d="M451-930c71-134 228-244 436-200l-23 286c-220-45-399 61-399 275V0H160v-1118h231l45 188h15" id="U"/><g id="b"><use transform="matrix(0.009765625000000002,0,0,0.009765625000000002,0,0)" xlink:href="#R"/><use transform="matrix(0.009765625000000002,0,0,0.009765625000000002,19.638671875000004,0)" xlink:href="#O"/><use transform="matrix(0.009765625000000002,0,0,0.009765625000000002,31.718750000000007,0)" xlink:href="#P"/><use transform="matrix(0.009765625000000002,0,0,0.009765625000000002,44.86328125000001,0)" xlink:href="#O"/><use transform="matrix(0.009765625000000002,0,0,0.009765625000000002,56.94335937500001,0)" xlink:href="#S"/><use transform="matrix(0.009765625000000002,0,0,0.009765625000000002,68.24218750000001,0)" xlink:href="#T"/><use transform="matrix(0.009765625000000002,0,0,0.009765625000000002,80.05859375000001,0)" xlink:href="#U"/></g><path fill="#3d4752" d="M1481 0h-394L451-1106h-9c33 431 14 683 19 1106H184v-1462h391l635 1095h7c-26-429-11-678-15-1095h279V0" id="V"/><path fill="#3d4752" d="M1079 0c-64-298-133-592-202-885h-7L666 0H338L20-1118h304c74 305 149 505 192 862h6c25-292 125-597 189-862h336c64 284 150 545 182 862h6c7-69 49-308 65-367l134-495h299L1411 0h-332" id="W"/><g id="c"><use transform="matrix(0.009765625000000002,0,0,0.009765625000000002,0,0)" xlink:href="#V"/><use transform="matrix(0.009765625000000002,0,0,0.009765625000000002,16.259765625000004,0)" xlink:href="#T"/><use transform="matrix(0.009765625000000002,0,0,0.009765625000000002,27.675781250000004,0)" xlink:href="#W"/></g><path fill="#3d4752" d="M954-63C853 0 774 20 614 20 266 20 92-171 92-553c0-369 188-586 549-586 129 0 245 25 348 76l-90 236c-84-31-156-66-258-66-159 0-238 113-238 338 0 219 79 328 238 328 137 0 223-38 313-97v261" id="X"/><path fill="#3d4752" d="M633-893c-183 0-230 133-230 332s48 336 232 336c183 0 229-137 229-336s-47-332-231-332zm4-246c347 5 535 225 539 578S978 25 631 20C283 15 96-208 92-561c-4-355 196-583 545-578" id="Y"/><path fill="#3d4752" d="M639-223c202 0 242-139 242-369v-526h305V0H952l-41-143h-16C834-43 709 20 551 20c-263 0-397-147-397-409v-729h305v653c1 148 42 242 180 242" id="Z"/><path fill="#3d4752" d="M498-350c-2 85 52 126 133 127 53 0 117-12 192-35v227C747 3 654 20 543 20c-247 0-350-124-350-370v-539H47v-129l168-102 88-236h195v238h313v229H498v539" id="aa"/><g id="d"><use transform="matrix(0.009765625000000002,0,0,0.009765625000000002,0,0)" xlink:href="#O"/><use transform="matrix(0.009765625000000002,0,0,0.009765625000000002,12.080078125000002,0)" xlink:href="#X"/><use transform="matrix(0.009765625000000002,0,0,0.009765625000000002,22.363281250000004,0)" xlink:href="#X"/><use transform="matrix(0.009765625000000002,0,0,0.009765625000000002,32.64648437500001,0)" xlink:href="#Y"/><use transform="matrix(0.009765625000000002,0,0,0.009765625000000002,45.02929687500001,0)" xlink:href="#Z"/><use transform="matrix(0.009765625000000002,0,0,0.009765625000000002,58.17382812500001,0)" xlink:href="#P"/><use transform="matrix(0.009765625000000002,0,0,0.009765625000000002,71.31835937500001,0)" xlink:href="#aa"/></g><path fill="#3d4752" d="M92-557c0-327 132-582 430-582 141 0 248 55 322 164h10c-38-188-18-371-23-581h306V0H903l-59-145h-13C762-35 656 20 514 20 222 20 92-237 92-557zm309 4c0 190 54 330 220 330 191 0 231-123 231-332 0-214-44-336-236-336-161 0-215 151-215 338" id="ab"/><path fill="#3d4752" d="M479-1407c-1 99-61 150-166 150-111 0-166-50-166-150 0-99 55-149 166-149s166 50 166 149zM465 0H160v-1118h305V0" id="ac"/><path fill="#3d4752" d="M465 0H160v-1556h305V0" id="ad"/><path fill="#3d4752" d="M836-831c-99-39-182-77-306-82-139-6-173 83-92 144 51 39 327 139 383 188 71 62 119 126 119 249C940-74 747 21 463 20 305 20 202 0 94-45v-252c93 45 253 94 379 94 111 0 166-32 166-96 0-68-41-76-98-109-79-46-276-119-333-167-74-61-116-125-116-252 0-368 555-367 836-224" id="ae"/><g id="f"><use transform="matrix(0.009765625000000002,0,0,0.009765625000000002,0,0)" xlink:href="#ab"/><use transform="matrix(0.009765625000000002,0,0,0.009765625000000002,12.656250000000002,0)" xlink:href="#T"/><use transform="matrix(0.009765625000000002,0,0,0.009765625000000002,24.472656250000004,0)" xlink:href="#aa"/><use transform="matrix(0.009765625000000002,0,0,0.009765625000000002,33.15429687500001,0)" xlink:href="#O"/><use transform="matrix(0.009765625000000002,0,0,0.009765625000000002,45.23437500000001,0)" xlink:href="#ac"/><use transform="matrix(0.009765625000000002,0,0,0.009765625000000002,51.33789062500001,0)" xlink:href="#ad"/><use transform="matrix(0.009765625000000002,0,0,0.009765625000000002,57.44140625000001,0)" xlink:href="#ae"/></g><path fill="#3d4752" d="M846 0H537c2-380-6-768 8-1137-108 112-167 145-275 236l-149-186 471-375h254V0" id="af"/><path fill="#3d4752" d="M293 27c-110 0-177-61-176-170 0-113 63-170 176-170 109-1 174 61 174 170 0 105-67 170-174 170" id="ag"/><path fill="#3d4752" d="M1096-731c0 255-42 444-126 567S758 20 584 20c-169 0-296-63-382-190S74-484 74-731c0-258 42-449 125-571s212-183 385-183c169 0 296 64 382 192s130 315 130 562zm-668-387c-58 126-58 646 0 772 35 76 83 117 156 117 72 0 120-41 156-118 60-128 60-645 0-771-36-76-85-117-156-117-73 0-120 41-156 117" id="ah"/><g id="g"><use transform="matrix(0.009765625000000002,0,0,0.009765625000000002,0,0)" xlink:href="#af"/><use transform="matrix(0.009765625000000002,0,0,0.009765625000000002,11.416015625000002,0)" xlink:href="#ag"/><use transform="matrix(0.009765625000000002,0,0,0.009765625000000002,17.119140625000004,0)" xlink:href="#ah"/></g><path fill="#3d4752" d="M817-1485c460 0 694 282 694 752 0 468-238 753-696 753-459 0-696-285-696-755 0-471 238-750 698-750zm0 258c-273 0-374 198-373 494 0 296 98 493 371 493 247 0 371-164 371-493s-123-494-369-494" id="ai"/><path fill="#3d4752" d="M782-1139c293 0 422 256 422 578 0 230-70 418-202 512-65 46-141 69-228 69-131 0-234-48-309-143h-16c32 222 9 383 16 615H160v-1610h248l43 145h14c71-111 177-166 317-166zm111 574c0-190-40-330-209-330-184 0-221 128-219 332 2 209 40 336 223 336 137 0 205-113 205-338" id="aj"/><g id="h"><use transform="matrix(0.009765625000000002,0,0,0.009765625000000002,0,0)" xlink:href="#ai"/><use transform="matrix(0.009765625000000002,0,0,0.009765625000000002,15.917968750000004,0)" xlink:href="#aj"/><use transform="matrix(0.009765625000000002,0,0,0.009765625000000002,28.574218750000004,0)" xlink:href="#T"/><use transform="matrix(0.009765625000000002,0,0,0.009765625000000002,40.39062500000001,0)" xlink:href="#P"/></g><g id="i"><use transform="matrix(0.009765625000000002,0,0,0.009765625000000002,0,0)" xlink:href="#O"/><use transform="matrix(0.009765625000000002,0,0,0.009765625000000002,12.080078125000002,0)" xlink:href="#X"/><use transform="matrix(0.009765625000000002,0,0,0.009765625000000002,22.363281250000004,0)" xlink:href="#X"/><use transform="matrix(0.009765625000000002,0,0,0.009765625000000002,32.64648437500001,0)" xlink:href="#Y"/><use transform="matrix(0.009765625000000002,0,0,0.009765625000000002,45.02929687500001,0)" xlink:href="#Z"/><use transform="matrix(0.009765625000000002,0,0,0.009765625000000002,58.17382812500001,0)" xlink:href="#P"/><use transform="matrix(0.009765625000000002,0,0,0.009765625000000002,71.31835937500001,0)" xlink:href="#aa"/></g><path fill="#3d4752" d="M1133-1128c-95-42-202-97-328-97-258 0-367 218-367 498 0 326 122 489 367 489 103 0 227-26 373-77v260C1058-5 924 20 776 20c-443 0-662-290-657-749 5-455 236-754 686-754 142 0 285 34 428 103" id="ak"/><g id="j"><use transform="matrix(0.009765625000000002,0,0,0.009765625000000002,0,0)" xlink:href="#ak"/><use transform="matrix(0.009765625000000002,0,0,0.009765625000000002,12.744140625000002,0)" xlink:href="#Z"/><use transform="matrix(0.009765625000000002,0,0,0.009765625000000002,25.888671875000004,0)" xlink:href="#ae"/><use transform="matrix(0.009765625000000002,0,0,0.009765625000000002,35.83007812500001,0)" xlink:href="#aa"/><use transform="matrix(0.009765625000000002,0,0,0.009765625000000002,44.51171875000001,0)" xlink:href="#Y"/><use transform="matrix(0.009765625000000002,0,0,0.009765625000000002,56.89453125000001,0)" xlink:href="#R"/><use transform="matrix(0.009765625000000002,0,0,0.009765625000000002,76.53320312500001,0)" xlink:href="#T"/><use transform="matrix(0.009765625000000002,0,0,0.009765625000000002,88.34960937500001,0)" xlink:href="#U"/></g><g id="k"><use transform="matrix(0.009765625000000002,0,0,0.009765625000000002,0,0)" xlink:href="#ak"/><use transform="matrix(0.009765625000000002,0,0,0.009765625000000002,12.744140625000002,0)" xlink:href="#Z"/><use transform="matrix(0.009765625000000002,0,0,0.009765625000000002,25.888671875000004,0)" xlink:href="#ae"/><use transform="matrix(0.009765625000000002,0,0,0.009765625000000002,35.83007812500001,0)" xlink:href="#aa"/><use transform="matrix(0.009765625000000002,0,0,0.009765625000000002,44.51171875000001,0)" xlink:href="#Y"/><use transform="matrix(0.009765625000000002,0,0,0.009765625000000002,56.89453125000001,0)" xlink:href="#R"/><use transform="matrix(0.009765625000000002,0,0,0.009765625000000002,76.53320312500001,0)" xlink:href="#T"/><use transform="matrix(0.009765625000000002,0,0,0.009765625000000002,88.34960937500001,0)" xlink:href="#U"/></g><path fill="#3d4752" d="M782-1139c292 0 422 259 422 578 0 185-39 328-116 429S907 20 774 20c-131 0-234-48-309-143h-21L393 0H160v-1556h305c-3 221 8 361-12 583h12c71-111 177-166 317-166zM465-596c-3 221 29 369 223 369 63 0 110-31 150-87 71-99 72-401-1-498-40-53-88-83-153-83-174 0-216 109-219 299" id="al"/><g id="l"><use transform="matrix(0.009765625000000002,0,0,0.009765625000000002,0,0)" xlink:href="#ab"/><use transform="matrix(0.009765625000000002,0,0,0.009765625000000002,12.656250000000002,0)" xlink:href="#O"/><use transform="matrix(0.009765625000000002,0,0,0.009765625000000002,24.736328125000004,0)" xlink:href="#aa"/><use transform="matrix(0.009765625000000002,0,0,0.009765625000000002,33.41796875000001,0)" xlink:href="#O"/><use transform="matrix(0.009765625000000002,0,0,0.009765625000000002,45.49804687500001,0)" xlink:href="#al"/><use transform="matrix(0.009765625000000002,0,0,0.009765625000000002,58.15429687500001,0)" xlink:href="#O"/><use transform="matrix(0.009765625000000002,0,0,0.009765625000000002,70.23437500000001,0)" xlink:href="#ae"/><use transform="matrix(0.009765625000000002,0,0,0.009765625000000002,80.17578125000001,0)" xlink:href="#T"/></g><path fill="#3d4752" d="M1079 0L973-348H440L334 0H0l516-1468h379L1413 0h-334zM899-608c-127-415-146-457-192-633-22 85-85 296-189 633h381" id="am"/><g id="m"><use transform="matrix(0.009765625000000002,0,0,0.009765625000000002,0,0)" xlink:href="#am"/><use transform="matrix(0.009765625000000002,0,0,0.009765625000000002,13.798828125000002,0)" xlink:href="#X"/><use transform="matrix(0.009765625000000002,0,0,0.009765625000000002,24.082031250000004,0)" xlink:href="#X"/><use transform="matrix(0.009765625000000002,0,0,0.009765625000000002,34.36523437500001,0)" xlink:href="#Y"/><use transform="matrix(0.009765625000000002,0,0,0.009765625000000002,46.74804687500001,0)" xlink:href="#Z"/><use transform="matrix(0.009765625000000002,0,0,0.009765625000000002,59.89257812500001,0)" xlink:href="#P"/><use transform="matrix(0.009765625000000002,0,0,0.009765625000000002,73.03710937500001,0)" xlink:href="#aa"/></g><g id="o"><use transform="matrix(0.009765625000000002,0,0,0.009765625000000002,0,0)" xlink:href="#ak"/><use transform="matrix(0.009765625000000002,0,0,0.009765625000000002,12.744140625000002,0)" xlink:href="#Z"/><use transform="matrix(0.009765625000000002,0,0,0.009765625000000002,25.888671875000004,0)" xlink:href="#ae"/><use transform="matrix(0.009765625000000002,0,0,0.009765625000000002,35.83007812500001,0)" xlink:href="#aa"/><use transform="matrix(0.009765625000000002,0,0,0.009765625000000002,44.51171875000001,0)" xlink:href="#Y"/><use transform="matrix(0.009765625000000002,0,0,0.009765625000000002,56.89453125000001,0)" xlink:href="#R"/><use transform="matrix(0.009765625000000002,0,0,0.009765625000000002,76.53320312500001,0)" xlink:href="#T"/><use transform="matrix(0.009765625000000002,0,0,0.009765625000000002,88.34960937500001,0)" xlink:href="#U"/></g><path fill="#3d4752" d="M184 0v-1462h310v1206h593V0H184" id="an"/><g id="q"><use transform="matrix(0.009765625000000002,0,0,0.009765625000000002,0,0)" xlink:href="#an"/><use transform="matrix(0.009765625000000002,0,0,0.009765625000000002,11.298828125000002,0)" xlink:href="#Y"/><use transform="matrix(0.009765625000000002,0,0,0.009765625000000002,23.681640625000004,0)" xlink:href="#S"/><use transform="matrix(0.009765625000000002,0,0,0.009765625000000002,34.98046875000001,0)" xlink:href="#ac"/><use transform="matrix(0.009765625000000002,0,0,0.009765625000000002,41.08398437500001,0)" xlink:href="#P"/></g><g id="r"><use transform="matrix(0.009765625000000002,0,0,0.009765625000000002,0,0)" xlink:href="#X"/><use transform="matrix(0.009765625000000002,0,0,0.009765625000000002,10.283203125000002,0)" xlink:href="#U"/><use transform="matrix(0.009765625000000002,0,0,0.009765625000000002,18.964843750000004,0)" xlink:href="#T"/><use transform="matrix(0.009765625000000002,0,0,0.009765625000000002,30.781250000000007,0)" xlink:href="#ab"/><use transform="matrix(0.009765625000000002,0,0,0.009765625000000002,43.43750000000001,0)" xlink:href="#T"/><use transform="matrix(0.009765625000000002,0,0,0.009765625000000002,55.25390625000001,0)" xlink:href="#P"/><use transform="matrix(0.009765625000000002,0,0,0.009765625000000002,68.39843750000001,0)" xlink:href="#aa"/><use transform="matrix(0.009765625000000002,0,0,0.009765625000000002,77.08007812500001,0)" xlink:href="#ac"/><use transform="matrix(0.009765625000000002,0,0,0.009765625000000002,83.18359375000001,0)" xlink:href="#O"/><use transform="matrix(0.009765625000000002,0,0,0.009765625000000002,95.26367187500001,0)" xlink:href="#ad"/><use transform="matrix(0.009765625000000002,0,0,0.009765625000000002,101.36718750000001,0)" xlink:href="#ae"/></g><path fill="#3d4752" d="M600-1483c268 0 463 136 463 396 0 168-62 262-145 371-76 99-325 321-451 442v14h637V0H82v-215c165-170 448-439 580-603 57-71 91-127 94-233 3-114-68-174-178-174-148 0-233 73-332 150L78-1274c156-133 262-209 522-209" id="ao"/><g id="s"><use transform="matrix(0.009765625000000002,0,0,0.009765625000000002,0,0)" xlink:href="#ao"/><use transform="matrix(0.009765625000000002,0,0,0.009765625000000002,11.416015625000002,0)" xlink:href="#ag"/><use transform="matrix(0.009765625000000002,0,0,0.009765625000000002,17.119140625000004,0)" xlink:href="#ah"/></g><g id="t"><use transform="matrix(0.009765625000000002,0,0,0.009765625000000002,0,0)" xlink:href="#ai"/><use transform="matrix(0.009765625000000002,0,0,0.009765625000000002,15.917968750000004,0)" xlink:href="#P"/><use transform="matrix(0.009765625000000002,0,0,0.009765625000000002,29.062500000000004,0)" xlink:href="#ad"/><use transform="matrix(0.009765625000000002,0,0,0.009765625000000002,35.16601562500001,0)" xlink:href="#ac"/><use transform="matrix(0.009765625000000002,0,0,0.009765625000000002,41.26953125000001,0)" xlink:href="#P"/><use transform="matrix(0.009765625000000002,0,0,0.009765625000000002,54.41406250000001,0)" xlink:href="#T"/></g><g id="u"><use transform="matrix(0.009765625000000002,0,0,0.009765625000000002,0,0)" xlink:href="#al"/><use transform="matrix(0.009765625000000002,0,0,0.009765625000000002,12.656250000000002,0)" xlink:href="#O"/><use transform="matrix(0.009765625000000002,0,0,0.009765625000000002,24.736328125000004,0)" xlink:href="#P"/><use transform="matrix(0.009765625000000002,0,0,0.009765625000000002,37.88085937500001,0)" xlink:href="#Q"/><use transform="matrix(0.009765625000000002,0,0,0.009765625000000002,50.28320312500001,0)" xlink:href="#ac"/><use transform="matrix(0.009765625000000002,0,0,0.009765625000000002,56.38671875000001,0)" xlink:href="#P"/><use transform="matrix(0.009765625000000002,0,0,0.009765625000000002,69.53125000000001,0)" xlink:href="#S"/></g><g id="v"><use transform="matrix(0.009765625000000002,0,0,0.009765625000000002,0,0)" xlink:href="#ad"/><use transform="matrix(0.009765625000000002,0,0,0.009765625000000002,6.103515625000001,0)" xlink:href="#Y"/><use transform="matrix(0.009765625000000002,0,0,0.009765625000000002,18.486328125000004,0)" xlink:href="#S"/><use transform="matrix(0.009765625000000002,0,0,0.009765625000000002,29.785156250000004,0)" xlink:href="#ac"/><use transform="matrix(0.009765625000000002,0,0,0.009765625000000002,35.88867187500001,0)" xlink:href="#P"/></g><path fill="#3d4752" d="M1608 0h-353c-89-370-200-713-266-1110C925-709 814-372 725 0H373L0-1462h305c83 378 199 789 258 1181 8-76 51-295 68-362l213-819h293l213 819c19 75 56 275 67 362 65-419 172-785 258-1181h305" id="ap"/><path fill="#3d4752" d="M791-1139c262-1 402 148 401 410V0H887v-653c0-161-60-242-180-242-201 0-242 142-242 369V0H160v-1556h305c-1 210 6 368-14 581h16c68-109 176-164 324-164" id="aq"/><g id="w"><use transform="matrix(0.009765625000000002,0,0,0.009765625000000002,0,0)" xlink:href="#ap"/><use transform="matrix(0.009765625000000002,0,0,0.009765625000000002,19.335937500000004,0)" xlink:href="#ac"/><use transform="matrix(0.009765625000000002,0,0,0.009765625000000002,25.439453125000004,0)" xlink:href="#aa"/><use transform="matrix(0.009765625000000002,0,0,0.009765625000000002,34.12109375000001,0)" xlink:href="#aq"/><use transform="matrix(0.009765625000000002,0,0,0.009765625000000002,47.26562500000001,0)" xlink:href="#ab"/><use transform="matrix(0.009765625000000002,0,0,0.009765625000000002,59.92187500000001,0)" xlink:href="#U"/><use transform="matrix(0.009765625000000002,0,0,0.009765625000000002,68.60351562500001,0)" xlink:href="#O"/><use transform="matrix(0.009765625000000002,0,0,0.009765625000000002,80.68359375000001,0)" xlink:href="#W"/><use transform="matrix(0.009765625000000002,0,0,0.009765625000000002,97.80273437500001,0)" xlink:href="#O"/><use transform="matrix(0.009765625000000002,0,0,0.009765625000000002,109.88281250000001,0)" xlink:href="#ad"/></g><path fill="#3d4752" d="M403-553c0 196 45 334 220 334 192 0 229-123 229-336s-44-336-234-336c-143 0-215 113-215 338zm428 408C771-45 666 20 514 20 221 20 92-235 92-557c0-325 133-582 428-582 160 0 251 63 324 164h8l27-143h258V492H831c5-223-13-428 13-637h-13" id="ar"/><g id="y"><use transform="matrix(0.009765625000000002,0,0,0.009765625000000002,0,0)" xlink:href="#U"/><use transform="matrix(0.009765625000000002,0,0,0.009765625000000002,8.681640625000002,0)" xlink:href="#T"/><use transform="matrix(0.009765625000000002,0,0,0.009765625000000002,20.498046875000004,0)" xlink:href="#ar"/><use transform="matrix(0.009765625000000002,0,0,0.009765625000000002,33.15429687500001,0)" xlink:href="#Z"/><use transform="matrix(0.009765625000000002,0,0,0.009765625000000002,46.29882812500001,0)" xlink:href="#T"/><use transform="matrix(0.009765625000000002,0,0,0.009765625000000002,58.11523437500001,0)" xlink:href="#ae"/><use transform="matrix(0.009765625000000002,0,0,0.009765625000000002,68.05664062500001,0)" xlink:href="#aa"/></g><path fill="#3d4752" d="M557-1483c267 0 490 104 490 348 0 203-138 325-316 365v6c211 26 359 121 359 338 0 311-250 446-590 446C341 20 201-6 78-59v-263c102 51 243 97 389 97 185 0 299-48 299-219 0-69-30-115-84-146-67-39-240-46-379-43v-237h113c195-4 327-25 327-197 0-111-69-166-208-166-135 0-211 43-312 107L80-1339c133-96 292-144 477-144" id="as"/><g id="z"><use transform="matrix(0.009765625000000002,0,0,0.009765625000000002,0,0)" xlink:href="#as"/><use transform="matrix(0.009765625000000002,0,0,0.009765625000000002,11.416015625000002,0)" xlink:href="#ag"/><use transform="matrix(0.009765625000000002,0,0,0.009765625000000002,17.119140625000004,0)" xlink:href="#ah"/></g><g id="A"><use transform="matrix(0.009765625000000002,0,0,0.009765625000000002,0,0)" xlink:href="#ap"/><use transform="matrix(0.009765625000000002,0,0,0.009765625000000002,19.335937500000004,0)" xlink:href="#ac"/><use transform="matrix(0.009765625000000002,0,0,0.009765625000000002,25.439453125000004,0)" xlink:href="#aa"/><use transform="matrix(0.009765625000000002,0,0,0.009765625000000002,34.12109375000001,0)" xlink:href="#aq"/><use transform="matrix(0.009765625000000002,0,0,0.009765625000000002,47.26562500000001,0)" xlink:href="#ab"/><use transform="matrix(0.009765625000000002,0,0,0.009765625000000002,59.92187500000001,0)" xlink:href="#U"/><use transform="matrix(0.009765625000000002,0,0,0.009765625000000002,68.60351562500001,0)" xlink:href="#O"/><use transform="matrix(0.009765625000000002,0,0,0.009765625000000002,80.68359375000001,0)" xlink:href="#W"/></g><path fill="#3d4752" d="M1137-303H961V0H659v-303H35v-215l641-944h285v919h176v240zM659-543c-1-180-1-393 13-565h-8c-25 55-54 108-89 160L307-543h352" id="at"/><g id="B"><use transform="matrix(0.009765625000000002,0,0,0.009765625000000002,0,0)" xlink:href="#at"/><use transform="matrix(0.009765625000000002,0,0,0.009765625000000002,11.416015625000002,0)" xlink:href="#ag"/><use transform="matrix(0.009765625000000002,0,0,0.009765625000000002,17.119140625000004,0)" xlink:href="#ah"/></g><path fill="#3d4752" d="M643-1462c464-5 754 260 754 717 0 491-297 749-799 745H184v-1462h459zm432 725c0-314-139-471-416-471H494v952h133c299 0 448-160 448-481" id="au"/><g id="C"><use transform="matrix(0.009765625000000002,0,0,0.009765625000000002,0,0)" xlink:href="#au"/><use transform="matrix(0.009765625000000002,0,0,0.009765625000000002,14.804687500000002,0)" xlink:href="#T"/><use transform="matrix(0.009765625000000002,0,0,0.009765625000000002,26.621093750000004,0)" xlink:href="#aj"/><use transform="matrix(0.009765625000000002,0,0,0.009765625000000002,39.27734375000001,0)" xlink:href="#Y"/><use transform="matrix(0.009765625000000002,0,0,0.009765625000000002,51.66015625000001,0)" xlink:href="#ae"/><use transform="matrix(0.009765625000000002,0,0,0.009765625000000002,61.601562500000014,0)" xlink:href="#ac"/><use transform="matrix(0.009765625000000002,0,0,0.009765625000000002,67.70507812500001,0)" xlink:href="#aa"/></g><path fill="#3d4752" d="M473-684c-66-1-171 18-221 33l-123-66 55-745h793v262H455l-27 287c56-13 108-21 186-21 276 0 465 170 463 445-2 341-228 509-583 509-163 0-294-26-394-79v-267c92 50 247 95 383 95 189 0 283-77 283-232 0-147-98-221-293-221" id="av"/><g id="D"><use transform="matrix(0.009765625000000002,0,0,0.009765625000000002,0,0)" xlink:href="#av"/><use transform="matrix(0.009765625000000002,0,0,0.009765625000000002,11.416015625000002,0)" xlink:href="#ag"/><use transform="matrix(0.009765625000000002,0,0,0.009765625000000002,17.119140625000004,0)" xlink:href="#ah"/></g><path fill="#3d4752" d="M748 0H438v-1204H41v-258h1104v258H748V0" id="aw"/><path fill="#3d4752" d="M637-1325c-111 0-131 91-123 207h264v229H514V0H209v-889H41v-147l168-82c-18-311 94-449 395-449 105 0 199 16 281 47l-78 224c-61-19-118-29-170-29" id="ax"/><g id="E"><use transform="matrix(0.009765625000000002,0,0,0.009765625000000002,0,0)" xlink:href="#aw"/><use transform="matrix(0.009765625000000002,0,0,0.009765625000000002,10.585937500000002,0)" xlink:href="#U"/><use transform="matrix(0.009765625000000002,0,0,0.009765625000000002,19.267578125000004,0)" xlink:href="#O"/><use transform="matrix(0.009765625000000002,0,0,0.009765625000000002,31.347656250000007,0)" xlink:href="#P"/><use transform="matrix(0.009765625000000002,0,0,0.009765625000000002,44.49218750000001,0)" xlink:href="#ae"/><use transform="matrix(0.009765625000000002,0,0,0.009765625000000002,54.43359375000001,0)" xlink:href="#ax"/><use transform="matrix(0.009765625000000002,0,0,0.009765625000000002,62.177734375000014,0)" xlink:href="#T"/><use transform="matrix(0.009765625000000002,0,0,0.009765625000000002,73.99414062500001,0)" xlink:href="#U"/></g><g id="F"><use transform="matrix(0.009765625000000002,0,0,0.009765625000000002,0,0)" xlink:href="#ax"/><use transform="matrix(0.009765625000000002,0,0,0.009765625000000002,7.744140625000002,0)" xlink:href="#Z"/><use transform="matrix(0.009765625000000002,0,0,0.009765625000000002,20.888671875000004,0)" xlink:href="#P"/><use transform="matrix(0.009765625000000002,0,0,0.009765625000000002,34.03320312500001,0)" xlink:href="#ab"/><use transform="matrix(0.009765625000000002,0,0,0.009765625000000002,46.68945312500001,0)" xlink:href="#ae"/></g><g id="G"><use transform="matrix(0.009765625000000002,0,0,0.009765625000000002,0,0)" xlink:href="#ai"/><use transform="matrix(0.009765625000000002,0,0,0.009765625000000002,15.917968750000004,0)" xlink:href="#aa"/><use transform="matrix(0.009765625000000002,0,0,0.009765625000000002,24.599609375000007,0)" xlink:href="#aq"/><use transform="matrix(0.009765625000000002,0,0,0.009765625000000002,37.74414062500001,0)" xlink:href="#T"/><use transform="matrix(0.009765625000000002,0,0,0.009765625000000002,49.56054687500001,0)" xlink:href="#U"/></g><g id="H"><use transform="matrix(0.009765625000000002,0,0,0.009765625000000002,0,0)" xlink:href="#al"/><use transform="matrix(0.009765625000000002,0,0,0.009765625000000002,12.656250000000002,0)" xlink:href="#O"/><use transform="matrix(0.009765625000000002,0,0,0.009765625000000002,24.736328125000004,0)" xlink:href="#P"/><use transform="matrix(0.009765625000000002,0,0,0.009765625000000002,37.88085937500001,0)" xlink:href="#Q"/></g><g id="I"><use transform="matrix(0.009765625000000002,0,0,0.009765625000000002,0,0)" xlink:href="#aw"/><use transform="matrix(0.009765625000000002,0,0,0.009765625000000002,11.582031250000002,0)" xlink:href="#aq"/><use transform="matrix(0.009765625000000002,0,0,0.009765625000000002,24.726562500000004,0)" xlink:href="#ac"/><use transform="matrix(0.009765625000000002,0,0,0.009765625000000002,30.830078125000007,0)" xlink:href="#U"/><use transform="matrix(0.009765625000000002,0,0,0.009765625000000002,39.51171875000001,0)" xlink:href="#ab"/></g><path fill="#3d4752" d="M0-1118h334l211 629c18 55 30 119 37 194h6c7-69 23-133 43-194l207-629h327L692 143C611 389 392 544 70 475V233c95 21 196 18 262-37 50-42 89-123 112-204" id="ay"/><g id="J"><use transform="matrix(0.009765625000000002,0,0,0.009765625000000002,0,0)" xlink:href="#aj"/><use transform="matrix(0.009765625000000002,0,0,0.009765625000000002,12.656250000000002,0)" xlink:href="#O"/><use transform="matrix(0.009765625000000002,0,0,0.009765625000000002,24.736328125000004,0)" xlink:href="#U"/><use transform="matrix(0.009765625000000002,0,0,0.009765625000000002,33.81835937500001,0)" xlink:href="#aa"/><use transform="matrix(0.009765625000000002,0,0,0.009765625000000002,42.50000000000001,0)" xlink:href="#ay"/></g><path fill="#3d4752" d="M1458 0c3-430-10-709 15-1145h-9L1087 0H803L451-1147h-9c31 483 15 690 19 1147H184v-1462h422L952-344h6l367-1118h422V0h-289" id="az"/><g id="L"><use transform="matrix(0.009765625000000002,0,0,0.009765625000000002,0,0)" xlink:href="#az"/><use transform="matrix(0.009765625000000002,0,0,0.009765625000000002,18.857421875000004,0)" xlink:href="#Y"/><use transform="matrix(0.009765625000000002,0,0,0.009765625000000002,31.240234375000007,0)" xlink:href="#P"/><use transform="matrix(0.009765625000000002,0,0,0.009765625000000002,44.38476562500001,0)" xlink:href="#T"/><use transform="matrix(0.009765625000000002,0,0,0.009765625000000002,55.80078125000001,0)" xlink:href="#ay"/></g><g id="M"><use transform="matrix(0.009765625000000002,0,0,0.009765625000000002,0,0)" xlink:href="#O"/><use transform="matrix(0.009765625000000002,0,0,0.009765625000000002,12.080078125000002,0)" xlink:href="#R"/><use transform="matrix(0.009765625000000002,0,0,0.009765625000000002,31.718750000000007,0)" xlink:href="#Y"/><use transform="matrix(0.009765625000000002,0,0,0.009765625000000002,44.10156250000001,0)" xlink:href="#Z"/><use transform="matrix(0.009765625000000002,0,0,0.009765625000000002,57.24609375000001,0)" xlink:href="#P"/><use transform="matrix(0.009765625000000002,0,0,0.009765625000000002,70.39062500000001,0)" xlink:href="#aa"/></g></defs></g></svg>